<?xml version="1.0" standalone="no"?>
<!DOCTYPE svg PUBLIC "-//W3C//DTD SVG 20010904//EN"
 "http://www.w3.org/TR/2001/REC-SVG-20010904/DTD/svg10.dtd">
<svg version="1.0" xmlns="http://www.w3.org/2000/svg"
 width="415.000000pt" height="415.000000pt" viewBox="0 0 415.000000 415.000000"
 preserveAspectRatio="xMidYMid meet">
<metadata>
Created by potrace 1.14, written by Peter Selinger 2001-2017
</metadata>
<g transform="translate(0.000000,415.000000) scale(0.100000,-0.100000)"
fill="#000000" stroke="none">
<path d="M0 2075 l0 -2075 2075 0 2075 0 0 2075 0 2075 -2075 0 -2075 0 0
-2075z m2103 1295 c16 -30 18 -52 14 -146 -3 -66 -11 -120 -18 -132 -26 -41
-88 -51 -126 -20 -16 13 -17 128 -2 200 28 130 91 177 132 98z m-163 -654 c0
-118 1 -126 22 -140 33 -23 103 -21 129 5 18 18 20 31 18 137 l-2 117 34 3
c121 12 494 -47 677 -107 226 -74 362 -166 407 -275 34 -80 12 -152 -70 -236
l-54 -55 -3 -180 c-3 -170 -5 -183 -29 -235 -52 -110 -157 -189 -263 -197 -79
-7 -126 8 -165 52 -42 48 -51 91 -51 244 0 133 0 133 -22 128 -13 -3 -43 -9
-68 -12 -42 -6 -48 -11 -70 -51 -31 -59 -116 -136 -188 -170 -75 -36 -203 -45
-283 -19 -97 31 -173 90 -232 180 l-27 39 -122 18 c-103 15 -299 57 -345 75
-9 4 -13 -5 -13 -29 0 -49 -18 -98 -48 -130 -68 -74 -198 -55 -285 41 -70 78
-72 84 -75 307 -3 187 -2 205 17 240 98 188 432 319 941 367 19 2 65 5 103 5
l67 2 0 -124z m-1180 -1304 c0 -100 28 -161 110 -235 139 -126 392 -219 740
-274 166 -26 664 -26 830 0 348 55 601 148 740 274 82 74 110 135 110 235 0
43 4 78 9 78 11 0 57 -67 76 -112 24 -58 20 -163 -9 -224 -93 -200 -408 -351
-891 -426 -120 -19 -183 -22 -440 -22 -315 -1 -394 5 -610 49 -389 78 -649
215 -735 387 -50 102 -41 212 27 311 14 20 30 37 34 37 5 0 9 -35 9 -78z"/>
</g>
</svg>
